<svg width="122" height="29" viewBox="0 0 122 29" fill="none" xmlns="http://www.w3.org/2000/svg">
<path d="M94.2381 7.16559C93.5321 8.53445 93.0417 9.62845 92.7668 10.4476C92.6051 10.9218 92.4946 11.1859 92.4354 11.2398C92.3599 11.3152 92.244 11.353 92.0878 11.353C91.9584 11.353 91.8587 11.3099 91.7887 11.2237C91.724 11.1428 91.6917 11.0593 91.6917 10.9731C91.6917 10.7198 91.9342 10.0461 92.4192 8.95213C92.7641 8.16531 93.2222 7.27073 93.7935 6.26834C93.718 6.02043 93.6803 5.83175 93.6803 5.70242C93.6803 5.5192 93.7503 5.37372 93.8905 5.26593C93.9605 5.21203 94.036 5.18511 94.1168 5.18511C94.1923 5.18511 94.2893 5.21203 94.4078 5.26593C94.4887 5.1258 94.7877 4.61115 95.3051 3.72194C95.7686 2.82194 96.0246 2.29378 96.0731 2.1375C95.9276 2.20216 95.8117 2.25877 95.7255 2.30728C95.6339 2.35577 95.5611 2.38 95.5072 2.38C95.4371 2.38 95.3779 2.34226 95.3294 2.26683C95.2916 2.20755 95.2728 2.14019 95.2728 2.06473C95.2728 1.79528 95.4533 1.55817 95.8144 1.35338C96.0677 1.20787 96.3156 1.08657 96.5581 0.989552C96.6282 0.736277 96.6847 0.569234 96.7278 0.48839C96.8033 0.342881 96.9246 0.270142 97.0916 0.270142C97.2749 0.270142 97.4338 0.37252 97.5686 0.57731C97.8219 0.501876 98.0617 0.445313 98.288 0.407571C98.5198 0.369854 98.738 0.350961 98.9428 0.350961C99.5679 0.350961 100.042 0.528795 100.366 0.884478C100.673 1.22401 100.826 1.63628 100.826 2.1213C100.826 2.91351 100.516 3.66261 99.8967 4.36859C99.3147 5.02608 98.5386 5.52997 97.5686 5.88026C96.8249 6.14972 96.0919 6.28445 95.3698 6.28445C95.2458 6.28445 95.0572 6.27638 94.8039 6.2602C94.8902 6.58893 95.006 6.91768 95.1515 7.24641C95.4048 7.77994 95.7659 8.54521 96.2347 9.54221C96.3695 9.80628 96.5904 10.1835 96.8976 10.674C96.9784 10.8033 97.0189 10.9219 97.0189 11.0296C97.0189 11.132 96.9596 11.229 96.841 11.3206C96.7171 11.4068 96.612 11.4499 96.5258 11.4499C96.391 11.4499 96.2482 11.3071 96.0973 11.0215C96.0219 10.8867 95.9276 10.7198 95.8144 10.5204C95.3994 9.83593 94.874 8.71768 94.2381 7.16559V7.16559ZM95.2243 5.41951C95.4291 5.43038 95.5826 5.4358 95.685 5.4358C96.8006 5.4358 97.8434 5.04504 98.8135 4.2636C99.2392 3.91869 99.5841 3.51992 99.8482 3.06724C100.015 2.78699 100.099 2.4906 100.099 2.17805C100.099 1.86008 99.9964 1.62295 99.7916 1.46664C99.5922 1.30498 99.2904 1.22414 98.8862 1.22414C98.5198 1.22414 98.1506 1.29421 97.7787 1.43433C97.6332 1.48821 97.4257 1.57712 97.1563 1.70109C96.9677 2.13221 96.6605 2.75735 96.2347 3.5765C95.809 4.39028 95.4722 5.00464 95.2243 5.4196V5.41951Z" fill="white"/>
<path d="M99.4036 9.17041V9.31585C99.4036 9.43441 99.4332 9.53678 99.4925 9.62301C99.6272 9.82242 99.8482 9.92213 100.155 9.92213C100.829 9.92213 101.608 9.4048 102.492 8.37009C102.648 8.19224 102.78 8.10328 102.888 8.10328C102.947 8.10328 103.001 8.13297 103.049 8.19225C103.082 8.23535 103.098 8.27571 103.098 8.31343C103.098 8.52363 102.839 8.87936 102.322 9.38056C101.918 9.77396 101.487 10.0946 101.028 10.3425C100.57 10.5904 100.145 10.7144 99.7512 10.7144C99.347 10.7144 99.029 10.5742 98.7973 10.294C98.641 10.1 98.5629 9.83588 98.5629 9.50174C98.5629 8.59097 98.9913 7.69906 99.8482 6.82601C100.543 6.11464 101.15 5.75897 101.667 5.75897C101.807 5.75897 101.934 5.80207 102.047 5.8883C102.187 6.00148 102.257 6.14972 102.257 6.33295C102.257 6.61858 102.125 6.96891 101.861 7.38387C101.317 8.24615 100.498 8.84167 99.4036 9.17041V9.17041ZM99.5814 8.53987C99.9587 8.41052 100.255 8.26494 100.471 8.10328C100.848 7.81226 101.147 7.48354 101.368 7.11707C101.449 6.98774 101.489 6.87185 101.489 6.76944C101.489 6.66168 101.438 6.6078 101.336 6.6078C101.195 6.6078 100.996 6.71295 100.737 6.92312C100.274 7.29495 99.8886 7.83387 99.5814 8.53987Z" fill="white"/>
<path d="M105.709 9.38857C105.531 9.70116 105.356 9.96528 105.183 10.1808C104.844 10.6012 104.507 10.8113 104.173 10.8113C103.882 10.8113 103.656 10.6739 103.494 10.399C103.392 10.2212 103.34 10.011 103.34 9.76851C103.34 9.17029 103.529 8.51018 103.906 7.78802C104.327 6.98505 104.833 6.36792 105.426 5.93678C105.814 5.65655 106.189 5.51648 106.55 5.51648C106.776 5.51648 106.965 5.58653 107.115 5.72663C107.245 5.8506 107.309 5.99074 107.309 6.14702C107.309 6.26558 107.264 6.4299 107.172 6.64008C107.253 6.75325 107.293 6.85296 107.293 6.93919C107.293 7.05237 107.218 7.23828 107.067 7.49696C106.911 7.76103 106.754 8.11136 106.598 8.54789C106.431 9.01136 106.348 9.38321 106.348 9.66343C106.348 9.88979 106.415 10.0757 106.55 10.2212C106.587 10.2589 106.698 10.3209 106.881 10.4071C107.016 10.4718 107.083 10.585 107.083 10.7467C107.083 10.849 107.045 10.9326 106.97 10.9973C106.889 11.0673 106.795 11.1023 106.687 11.1023C106.396 11.1023 106.145 10.973 105.935 10.7144C105.763 10.5042 105.677 10.2401 105.677 9.92209C105.677 9.8143 105.687 9.63646 105.709 9.38857V9.38857ZM106.719 6.72904C106.655 6.61048 106.585 6.52419 106.509 6.47029C106.434 6.41101 106.353 6.38142 106.267 6.38142C105.857 6.38142 105.412 6.73983 104.933 7.4566C104.405 8.24881 104.141 8.91969 104.141 9.46939C104.141 9.60411 104.165 9.70658 104.213 9.77665C104.267 9.8467 104.345 9.88173 104.448 9.88173C104.707 9.88173 105.008 9.60685 105.353 9.05715C105.547 8.75536 105.787 8.31073 106.073 7.72331C106.261 7.34068 106.399 7.08739 106.485 6.96345C106.528 6.89876 106.606 6.82066 106.719 6.72904V6.72904Z" fill="white"/>
<path d="M110.891 6.00154C111.43 4.87519 111.939 3.89436 112.418 3.05905C112.882 2.25066 113.197 1.74139 113.364 1.53122C113.547 1.29948 113.72 1.18359 113.882 1.18359C113.968 1.18359 114.046 1.21862 114.116 1.28867C114.181 1.35874 114.213 1.4342 114.213 1.51502C114.213 1.63899 114.121 1.84648 113.938 2.1375C113.157 3.39857 112.44 4.6785 111.788 5.97729C111.033 7.49165 110.656 8.62608 110.656 9.38057C110.656 9.68775 110.715 9.93029 110.834 10.1081C110.856 10.1459 110.953 10.2321 111.125 10.3668C111.157 10.3937 111.174 10.4476 111.174 10.5284C111.174 10.6362 111.13 10.7359 111.044 10.8275C110.963 10.9138 110.872 10.9569 110.769 10.9569C110.645 10.9569 110.508 10.8814 110.357 10.7305C110.141 10.515 110.012 10.2671 109.969 9.98686C109.953 9.86827 109.934 9.64727 109.912 9.32392C109.347 10.3425 108.808 10.8518 108.296 10.8518C107.999 10.8518 107.762 10.6847 107.584 10.3506C107.466 10.1296 107.406 9.87909 107.406 9.59887C107.406 8.75815 107.714 7.91201 108.328 7.06052C108.937 6.2198 109.592 5.79945 110.292 5.79945C110.486 5.79945 110.686 5.8668 110.891 6.00154ZM110.616 6.66439C110.47 6.56736 110.344 6.51886 110.236 6.51886C109.783 6.51886 109.355 6.7964 108.95 7.35149C108.417 8.07365 108.15 8.77154 108.15 9.44519C108.15 9.52604 108.166 9.60149 108.199 9.67154C108.263 9.80628 108.36 9.87364 108.49 9.87364C108.678 9.87364 108.907 9.69039 109.177 9.32392C109.538 8.83891 109.872 8.26497 110.179 7.60209C110.287 7.37574 110.392 7.14946 110.494 6.92314C110.494 6.92314 110.519 6.87187 110.567 6.76946L110.616 6.66439Z" fill="white"/>
<path d="M112.564 9.17041V9.31585C112.564 9.43441 112.594 9.53678 112.653 9.62301C112.788 9.82242 113.009 9.92213 113.316 9.92213C113.989 9.92213 114.768 9.4048 115.652 8.37009C115.808 8.19224 115.94 8.10328 116.048 8.10328C116.107 8.10328 116.161 8.13297 116.21 8.19225C116.242 8.23535 116.258 8.27571 116.258 8.31343C116.258 8.52363 116 8.87936 115.482 9.38056C115.078 9.77396 114.647 10.0946 114.189 10.3425C113.731 10.5904 113.305 10.7144 112.912 10.7144C112.507 10.7144 112.189 10.5742 111.958 10.294C111.801 10.1 111.723 9.83588 111.723 9.50174C111.723 8.59097 112.152 7.69906 113.009 6.82601C113.704 6.11464 114.31 5.75897 114.827 5.75897C114.968 5.75897 115.094 5.80207 115.207 5.8883C115.347 6.00148 115.418 6.14972 115.418 6.33295C115.418 6.61858 115.286 6.96891 115.021 7.38387C114.477 8.24615 113.658 8.84167 112.564 9.17041V9.17041ZM112.742 8.53987C113.119 8.41052 113.415 8.26494 113.631 8.10328C114.008 7.81226 114.307 7.48354 114.528 7.11707C114.609 6.98774 114.65 6.87185 114.65 6.76944C114.65 6.66168 114.598 6.6078 114.496 6.6078C114.356 6.6078 114.156 6.71295 113.898 6.92312C113.434 7.29495 113.049 7.83387 112.742 8.53987Z" fill="white"/>
<path d="M117.964 8.06291C118.492 7.49703 119.101 6.94461 119.791 6.4057C120.039 6.21168 120.303 6.03118 120.583 5.86413C120.723 5.78329 120.812 5.74286 120.85 5.74286C120.931 5.74286 121.012 5.80214 121.092 5.9207C121.141 5.98536 121.165 6.04464 121.165 6.09854C121.165 6.19553 121.063 6.3276 120.858 6.49467C120.308 6.9312 120.033 7.25985 120.033 7.48079C120.033 7.60476 120.104 7.66678 120.244 7.66678C120.475 7.66678 120.874 7.47544 121.44 7.09281C121.537 7.02812 121.618 6.99579 121.683 6.99579C121.726 6.99579 121.769 7.01737 121.812 7.0605C121.86 7.10898 121.885 7.16019 121.885 7.21408C121.885 7.37577 121.658 7.62363 121.206 7.95775C120.731 8.31343 120.281 8.49126 119.856 8.49126C119.683 8.49126 119.524 8.44549 119.379 8.35388C119.255 8.27845 119.193 8.14371 119.193 7.94969C119.193 7.81495 119.249 7.66137 119.362 7.48894C118.937 7.79073 118.436 8.30805 117.859 9.04098C117.525 9.49366 117.193 10.0515 116.865 10.7144C116.741 10.9623 116.587 11.0863 116.404 11.0863C116.204 11.0863 116.105 10.9919 116.105 10.8033C116.105 10.62 116.261 10.1296 116.574 9.33204C117.037 8.14641 117.522 7.22757 118.029 6.57549C118.341 6.1713 118.603 5.96921 118.813 5.96921C118.883 5.96921 118.948 5.99072 119.007 6.03383C119.077 6.08772 119.112 6.15508 119.112 6.23592C119.112 6.31676 119.058 6.42998 118.95 6.57549C118.929 6.60244 118.786 6.78294 118.522 7.11706C118.279 7.43503 118.093 7.75033 117.964 8.06291V8.06291Z" fill="white"/>
<path fill-rule="evenodd" clip-rule="evenodd" d="M1.51915 8.85223C1.8665 8.61466 2.29464 8.52638 2.70764 8.60717C4.71653 9.00017 7.5227 10.0767 9.04294 11.1693C9.05157 11.1755 9.06014 11.1818 9.06865 11.1882C9.12068 11.2272 9.17574 11.268 9.23348 11.3108C9.95059 11.8421 11.082 12.6802 11.9746 14.2524C12.9345 15.943 13.547 18.3291 13.4833 21.899L10.3418 21.8429C10.3989 18.6453 9.84327 16.8622 9.24226 15.8037C8.68497 14.8221 8.02816 14.3321 7.33097 13.812C7.2866 13.7789 7.24207 13.7457 7.19739 13.7122C6.44529 13.1756 5.05519 12.5523 3.70761 12.1163C3.35328 15.324 3.60893 18.6135 4.58229 21.14C5.14973 22.6128 5.93026 23.7493 6.89599 24.4954C7.83729 25.2227 9.04565 25.6519 10.6409 25.5785C12.6867 25.4844 14.0449 25.0325 14.9704 24.4015C15.8757 23.7842 16.5031 22.903 16.9271 21.6798C17.3617 20.426 17.5685 18.8489 17.6202 16.9243C17.6594 15.4637 17.6087 13.8618 17.5229 12.119C16.1453 12.3461 15.2074 12.6531 14.6074 12.9085C14.2016 13.0813 13.9475 13.2315 13.8137 13.3201C13.7474 13.3639 13.7099 13.3932 13.6975 13.4032C13.651 13.4456 13.6021 13.4852 13.5509 13.5218L13.2689 13.7232L11.4424 11.1667L11.6595 11.0116C11.6794 10.9947 11.7013 10.9766 11.7253 10.9572C11.8139 10.8858 11.9308 10.7984 12.0796 10.7C12.3775 10.5028 12.8007 10.2628 13.3768 10.0176C14.5294 9.52695 16.2834 9.01995 18.8599 8.78577C19.2843 8.7472 19.7061 8.88267 20.0287 9.16113C20.3513 9.43958 20.5469 9.83712 20.5707 10.2626C20.7045 12.6566 20.8165 14.9421 20.7611 17.0086C20.7057 19.0691 20.4831 21.0144 19.8958 22.7087C19.298 24.4336 18.3113 25.9264 16.7404 26.9975C15.1896 28.0548 13.2096 28.6056 10.7853 28.7171L10.7131 27.1478L10.7854 28.7171C10.7853 28.7171 10.7853 28.7171 10.7853 28.7171C8.49004 28.8227 6.53963 28.1906 4.97498 26.9817C3.43477 25.7917 2.36218 24.1171 1.65038 22.2695C0.237399 18.602 0.125919 13.9534 0.85982 9.87098C0.934278 9.45679 1.1718 9.0898 1.51915 8.85223Z" fill="white"/>
<path d="M26.4299 9.37562C27.04 9.29424 27.8535 9.25364 28.7484 9.17229C29.684 9.1316 30.7416 9.09091 31.962 9.09091C34.2805 9.09091 36.0703 9.53836 37.2906 10.3926C38.511 11.2468 39.1211 12.4265 39.1211 13.9315C39.1211 14.9484 38.8771 15.7619 38.3483 16.4534C37.8195 17.1449 37.0466 17.7145 36.0297 18.1619C37.25 18.6094 38.1855 19.1788 38.7957 19.9517C39.4059 20.7245 39.7313 21.6601 39.7313 22.7991C39.7313 24.5075 39.0805 25.8906 37.7381 26.9075C36.3958 27.9244 34.4432 28.4126 31.8399 28.4126C30.7416 28.4126 29.7247 28.3719 28.7078 28.3312C27.7315 28.2906 26.9587 28.2092 26.3892 28.1278L26.4299 9.37562V9.37562ZM32.0433 26.2567C33.6704 26.2567 34.9314 25.9719 35.7856 25.4024C36.6805 24.8329 37.128 23.9787 37.128 22.8804C37.128 21.7821 36.6805 20.9686 35.8263 20.3585C34.9314 19.7483 33.6704 19.4229 32.0433 19.4229H28.9518V26.0939C29.9281 26.216 30.945 26.2567 32.0433 26.2567V26.2567ZM31.962 17.4704C33.3857 17.4704 34.5246 17.1857 35.3381 16.5755C36.1924 16.006 36.5991 15.2332 36.5991 14.2569C36.5991 13.24 36.1924 12.4671 35.3788 11.9383C34.5653 11.4095 33.4263 11.1654 32.0026 11.1654C31.3925 11.1654 30.8636 11.1654 30.3755 11.2061C29.8874 11.2467 29.4399 11.2468 29.0332 11.2875V17.4297L31.962 17.4704ZM44.4905 23.5719C44.4905 24.5482 44.6532 25.2804 45.06 25.7278C45.4668 26.1753 46.0362 26.4194 46.7278 26.4194C47.0532 26.4194 47.4193 26.3787 47.7447 26.2973C48.0701 26.216 48.3549 26.1346 48.5989 26.0125L49.2091 27.965C48.8836 28.1277 48.4769 28.2499 48.0294 28.3312C47.5413 28.4532 47.0125 28.4939 46.443 28.4939C45.8329 28.4939 45.2227 28.4126 44.6939 28.2092C44.1651 28.0464 43.7176 27.7617 43.3109 27.355C42.9041 26.9889 42.6194 26.5007 42.3753 25.8905C42.1312 25.2804 42.0499 24.5889 42.0499 23.7347V8.23669H44.4905V23.5719ZM60.9241 21.172C60.9241 20.4805 60.802 19.789 60.5987 19.1788C60.3546 18.5687 60.0699 17.9991 59.6631 17.5517C59.2564 17.1043 58.7682 16.6975 58.2394 16.4128C57.7106 16.128 57.1005 16.0059 56.4496 16.0059C55.0259 16.0059 53.9276 16.4534 53.1548 17.389C52.3819 18.3246 51.9751 19.5449 51.9751 21.0907C51.9751 21.7821 52.0972 22.4737 52.3005 23.0838C52.5446 23.7347 52.8293 24.2635 53.2361 24.7516C53.6429 25.2397 54.131 25.6058 54.6598 25.8905C55.1886 26.1753 55.7988 26.2973 56.4496 26.2973C57.1411 26.2973 57.792 26.1754 58.3208 25.9312C58.8902 25.6872 59.3377 25.3211 59.7445 24.8736C60.1105 24.4262 60.436 23.8567 60.6393 23.2466C60.802 22.6364 60.9241 21.9449 60.9241 21.172V21.172ZM49.4531 21.172C49.4531 20.033 49.6158 19.0161 49.982 18.1213C50.348 17.2263 50.8361 16.4535 51.4463 15.8026C52.0565 15.1925 52.7887 14.7043 53.6429 14.3382C54.4971 14.0128 55.4327 13.8094 56.4089 13.8094C57.3852 13.8094 58.2801 13.9721 59.1343 14.3382C59.9885 14.6636 60.7207 15.1518 61.3716 15.8026C61.9817 16.4128 62.5105 17.1856 62.8359 18.0805C63.202 18.9754 63.3647 19.9923 63.3647 21.0907C63.3647 22.1889 63.202 23.2059 62.8359 24.1414C62.4698 25.0363 61.9817 25.8092 61.3716 26.46C60.7614 27.1108 59.9885 27.599 59.1343 27.965C58.2801 28.3311 57.3445 28.4939 56.3682 28.4939C55.3513 28.4939 54.4157 28.3311 53.5615 27.965C52.7073 27.599 51.9751 27.1108 51.365 26.46C50.7548 25.8092 50.2667 25.0363 49.9006 24.1414C49.6158 23.2465 49.4531 22.2703 49.4531 21.172V21.172ZM76.6255 21.172C76.6255 20.4805 76.5034 19.789 76.3001 19.1788C76.056 18.5687 75.7712 17.9991 75.3645 17.5517C74.9577 17.1043 74.4696 16.6975 73.9408 16.4128C73.412 16.128 72.8019 16.0059 72.151 16.0059C70.7273 16.0059 69.629 16.4534 68.8561 17.389C68.0833 18.3246 67.6765 19.5449 67.6765 21.0907C67.6765 21.7821 67.7985 22.4737 68.0019 23.0838C68.246 23.7347 68.5307 24.2635 68.9375 24.7516C69.3443 25.2397 69.8324 25.6058 70.3612 25.8905C70.89 26.1753 71.5002 26.2973 72.151 26.2973C72.8425 26.2973 73.4933 26.1754 74.0222 25.9312C74.5916 25.6872 75.0391 25.3211 75.4459 24.8736C75.8119 24.4262 76.1374 23.8567 76.3407 23.2466C76.5441 22.6364 76.6255 21.9449 76.6255 21.172V21.172ZM65.1545 21.172C65.1545 20.033 65.3172 19.0161 65.6833 18.1213C66.0494 17.2263 66.5375 16.4535 67.1477 15.8026C67.7579 15.1925 68.4901 14.7043 69.3443 14.3382C70.1985 14.0128 71.1341 13.8094 72.1103 13.8094C73.0866 13.8094 73.9815 13.9721 74.8357 14.3382C75.6899 14.6636 76.4221 15.1518 77.0729 15.8026C77.6831 16.4128 78.2119 17.1856 78.5373 18.0805C78.9034 18.9754 79.0661 19.9923 79.0661 21.0907C79.0661 22.1889 78.9034 23.2059 78.5373 24.1414C78.1712 25.0363 77.6831 25.8092 77.0729 26.46C76.4628 27.1108 75.6899 27.599 74.8357 27.965C73.9815 28.3311 73.0459 28.4939 72.0696 28.4939C71.0527 28.4939 70.1171 28.3311 69.2629 27.965C68.4087 27.599 67.6765 27.1108 67.0664 26.46C66.4562 25.8092 65.9681 25.0363 65.602 24.1414C65.3172 23.2465 65.1545 22.2703 65.1545 21.172V21.172ZM83.5406 16.5348C84.0287 15.7619 84.6796 15.1518 85.4524 14.6229C86.2253 14.0942 87.1202 13.8501 88.0964 13.8501C89.1947 13.8501 90.1303 14.1349 90.8218 14.6637C91.5133 15.1925 92.0421 15.9246 92.3269 16.8195C92.8963 16.006 93.5472 15.2738 94.3201 14.7043C95.0929 14.1349 96.0285 13.8501 97.1675 13.8501C97.9403 13.8501 98.5911 13.9721 99.1606 14.2162C99.7301 14.4603 100.218 14.8264 100.584 15.2738C100.95 15.7212 101.235 16.2907 101.439 16.9009C101.642 17.5517 101.723 18.2432 101.723 19.0161V28.1685H99.2827V19.2196C99.2827 18.2433 99.0386 17.4704 98.5912 16.8602C98.1437 16.2501 97.5336 15.9653 96.72 15.9653C96.3132 15.9653 95.9065 16.0467 95.5404 16.2093C95.1743 16.3721 94.8082 16.5755 94.4421 16.8602C94.1167 17.145 93.7913 17.4704 93.4658 17.8365C93.1404 18.2026 92.8964 18.5687 92.6116 18.9754V28.1685H90.171V19.2196C90.171 18.2433 89.9269 17.4704 89.4795 16.8602C89.032 16.2501 88.4219 15.9653 87.6083 15.9653C87.2015 15.9653 86.8355 16.0467 86.4287 16.2093C86.0626 16.3721 85.6965 16.5755 85.3304 16.8602C84.9643 17.145 84.6389 17.4297 84.3542 17.7958C84.0287 18.1619 83.7847 18.528 83.4999 18.9348V28.1685H81.0593V14.1756H83.4186L83.5406 16.5348Z" fill="white"/>
<path d="M105.51 25.4556C104.673 25.4556 103.991 26.1375 103.991 26.9747C103.991 27.8119 104.673 28.4939 105.51 28.4939C106.347 28.4939 107.029 27.8119 107.029 26.9747C107.029 26.1375 106.347 25.4556 105.51 25.4556ZM105.51 25.7594C106.183 25.7594 106.725 26.3017 106.725 26.9747C106.725 27.6477 106.183 28.19 105.51 28.19C104.837 28.19 104.295 27.6477 104.295 26.9747C104.295 26.3017 104.837 25.7594 105.51 25.7594ZM104.978 26.2151V27.7343H105.296V27.1883H105.538L105.828 27.7343H106.165V27.7201L105.828 27.0983C105.858 27.0829 105.907 27.067 105.937 27.0365C105.983 27.0058 105.997 26.9766 106.027 26.9463C106.058 26.9008 106.074 26.8684 106.089 26.8229C106.104 26.7775 106.103 26.7317 106.103 26.6709C106.103 26.595 106.086 26.5323 106.056 26.4715C106.041 26.4261 105.997 26.3842 105.951 26.3387C105.891 26.2932 105.842 26.2589 105.766 26.2437C105.705 26.2283 105.629 26.2154 105.538 26.2154L104.978 26.2151ZM105.311 26.4905H105.557C105.633 26.4905 105.692 26.5017 105.738 26.5477C105.783 26.5931 105.799 26.6426 105.799 26.7186C105.799 26.7492 105.801 26.7784 105.785 26.8088C105.77 26.8395 105.753 26.8695 105.738 26.8848C105.723 26.9001 105.692 26.9125 105.662 26.9272C105.631 26.9426 105.603 26.9461 105.557 26.9461H105.311V26.4905Z" fill="white"/>
</svg>
